<mxfile host="app.diagrams.net" modified="2023-08-23T09:22:53.610Z" agent="Mozilla/5.0 (Windows NT 10.0; Win64; x64) AppleWebKit/537.36 (KHTML, like Gecko) Chrome/114.0.0.0 YaBrowser/23.7.3.824 Yowser/2.5 Safari/537.36" version="21.5.2" etag="f1Ry5Us72CUMFMK0oqet" type="github">
  <diagram name="Страница 1" id="Fz_d2SftM2Gu838euz6G">
    <mxGraphModel>
      <root>
        <mxCell id="0" />
        <mxCell id="1" parent="0" />
      </root>
    </mxGraphModel>
  </diagram>
</mxfile>
